<?xml version="1.0" encoding="utf-8"?>
<!-- Generator: Adobe Illustrator 21.1.0, SVG Export Plug-In . SVG Version: 6.00 Build 0)  -->
<svg version="1.1" id="Layer_1" xmlns="http://www.w3.org/2000/svg" xmlns:xlink="http://www.w3.org/1999/xlink" x="0px" y="0px"
	 viewBox="0 0 512 512" style="enable-background:new 0 0 512 512;" xml:space="preserve">
<style type="text/css">
	.st0{fill:#FFFFFF;}
</style>
<g id="admin">
	<path class="st0" d="M256,16C123.5,16,16,123.5,16,256s107.5,240,240,240s240-107.5,240-240C495.9,123.5,388.5,16.1,256,16z
		 M256,32c123.7-0.1,223.9,100.1,224,223.8c0,44.8-13.4,88.6-38.5,125.7c-2.4-7.7-5.4-15.1-9-22.3l21.7-26c2-2.4,2.4-5.9,1-8.7
		L436.9,288h3.1c4.4,0,8-3.6,8-8v-32c0-4.4-3.6-8-8-8h-8v-40c0-13.3-10.7-24-24-24s-24,10.7-24,24v40h-8c-4.4,0-8,3.6-8,8v32
		c0,4.4,3.6,8,8,8h3.1l-5.1,10.2c-21.4-11.9-45.5-18.2-70-18.2h-96c-28.5,0-56.4,8.5-80,24.4v-38.9c22.9-13.2,30.8-42.5,17.6-65.5
		c-3.2-5.6-7.6-10.5-12.8-14.4c-2.1-1.6-5-2.1-7.5-1.1c-2.5,0.9-4.4,3-5.1,5.6l-6.5,25.9H94.2l-6.5-25.9c-1.1-4.3-5.4-6.9-9.7-5.8
		c-1,0.3-2,0.7-2.9,1.4c-21.2,15.9-25.5,45.9-9.6,67.1c3.9,5.2,8.8,9.5,14.4,12.8V352c0,1.7,0.2,3.4,0.6,5.1
		c-4.1,7.8-7.5,15.9-10,24.4C1.2,279.1,28,139.9,130.3,70.5C167.4,45.4,211.2,32,256,32z M416,240h-16v-40c0-4.4,3.6-8,8-8
		s8,3.6,8,8V240z M432,256v16h-48v-16H432z M396.9,288h22.1l19.4,38.9L408,363.5l-30.5-36.6L396.9,288z M299.8,365.9
		c1,2.3,3,4.1,5.4,4.7l14.8,3.7v19.5l-14.8,3.7c-4.3,1.1-6.9,5.4-5.8,9.7c0.2,0.8,0.5,1.5,0.9,2.2l7.8,13l-13.8,13.8l-13-7.8
		c-3.8-2.3-8.7-1-11,2.7c-0.4,0.7-0.7,1.4-0.9,2.2l-3.7,14.8h-19.5l-3.7-14.8c-1.1-4.3-5.4-6.9-9.7-5.8c-0.8,0.2-1.5,0.5-2.2,0.9
		l-13,7.8l-13.8-13.8l7.8-13c2.3-3.8,1-8.7-2.8-11c-0.7-0.4-1.4-0.7-2.2-0.9l-14.8-3.7v-19.5l14.8-3.7c4.3-1.1,6.9-5.4,5.8-9.7
		c-0.2-0.8-0.5-1.5-0.9-2.2l-7.8-13l13.8-13.8l13,7.8c3.8,2.3,8.7,1,11-2.7c0.4-0.7,0.7-1.4,0.9-2.2l3.7-14.8h19.5l3.7,14.8
		c1.1,4.3,5.4,6.9,9.7,5.8c0.8-0.2,1.5-0.5,2.2-0.9l13-7.8l13.8,13.8l-7.8,13C299,360.9,298.8,363.5,299.8,365.9z M290.8,315.3
		l-8.5,5.1l-2.6-10.3c-0.9-3.6-4.1-6.1-7.8-6.1h-32c-3.7,0-6.9,2.5-7.8,6.1l-2.6,10.3l-8.5-5.1l-3.6-19.3h76.8L290.8,315.3z
		 M104,256c-17.7,0-32-14.4-32-32c0-5.3,1.3-10.6,3.9-15.3l4.3,17.2c0.9,3.6,4.1,6.1,7.8,6.1h32c3.7,0,6.9-2.5,7.8-6.1l4.3-17.2
		c8.5,15.5,2.8,34.9-12.7,43.4C114.7,254.7,109.4,256,104,256z M96,352v-80.7c5.3,1,10.7,1,16,0V352c0,4.4-3.6,8-8,8
		S96,356.4,96,352z M82.8,397.9c1.8-8.9,4.5-17.5,8.2-25.8c11.1,7.2,25.9,4.1,33.1-7c2.5-3.9,3.9-8.5,3.9-13.1v-27.7
		c20.9-16.8,46.6-26.6,73.4-28l4.5,24.6l-17.8,17.8c-2.6,2.6-3.1,6.6-1.2,9.8l5.5,9.1l-10.3,2.6c-3.6,0.9-6.1,4.1-6.1,7.8v32
		c0,3.7,2.5,6.9,6.1,7.8l10.3,2.6L189,416H99.4C93.6,410.3,88,404.2,82.8,397.9z M117.7,432h73.2l19.9,19.9c2.6,2.6,6.6,3.1,9.8,1.2
		l9.1-5.5l2.6,10.3c0.9,3.6,4.1,6.1,7.8,6.1h32c3.7,0,6.9-2.5,7.8-6.1l2.6-10.3l9.1,5.5c3.1,1.9,7.2,1.4,9.8-1.2l19.9-19.9h73.2
		C313.2,496,198.8,496,117.7,432L117.7,432z M412.6,416H323l-3.4-5.7l10.3-2.6c3.6-0.9,6.1-4.1,6.1-7.8v-32c0-3.7-2.5-6.9-6.1-7.8
		l-10.3-2.6l5.5-9.1c1.9-3.1,1.4-7.2-1.2-9.8l-17.8-17.8l4.5-24.7c19.7,1,39,6.6,56.2,16.3l-6,11.9c-1.4,2.8-1,6.3,1,8.7l40,48
		c2.8,3.4,7.9,3.9,11.3,1c0.4-0.3,0.7-0.7,1-1l7.1-8.5c3.5,8.1,6.2,16.6,8,25.2C424,404.2,418.4,410.3,412.6,416z"/>
	<path class="st0" d="M335.6,208h0.4c13.3,0,24-10.7,24-24v-8c0-9.6-5.8-18.3-14.6-22.1l12.3-12.3c1.5-1.5,2.3-3.5,2.3-5.7v-16
		c0-39.7-32.3-72-72-72h-64c-39.7,0-72,32.3-72,72v16c0,2.1,0.8,4.2,2.3,5.7l12.3,12.3c-8.9,3.8-14.6,12.5-14.6,22.1v8
		c0,13.3,10.7,24,24,24h0.4c4.4,44,43.6,76,87.6,71.6C301.9,275.8,331.8,245.9,335.6,208L335.6,208z M344,184c0,4.4-3.6,8-8,8v-24
		c4.4,0,8,3.6,8,8V184z M168,120c0-30.9,25.1-56,56-56h64c30.9,0,56,25.1,56,56v12.7l-8,8V136c0-3.6-2.4-6.8-5.9-7.7l-88-24
		c-1.7-0.5-3.6-0.3-5.3,0.4l-56,24c-2.9,1.3-4.8,4.2-4.8,7.4v4.7l-8-8V120z M168,184v-8c0-4.4,3.6-8,8-8v24
		C171.6,192,168,188.4,168,184z M256,264c-35.3,0-64-28.7-64-64v-58.7l48.6-20.8l79.4,21.6V200C320,235.3,291.3,264,256,264z"/>
	<path class="st0" d="M256,352c-17.7,0-32,14.3-32,32s14.3,32,32,32s32-14.3,32-32S273.7,352,256,352z M256,400c-8.8,0-16-7.2-16-16
		s7.2-16,16-16c8.8,0,16,7.2,16,16S264.8,400,256,400z"/>
</g>
</svg>
