<?xml version="1.0" encoding="utf-8"?>
<!-- Generator: Adobe Illustrator 21.1.0, SVG Export Plug-In . SVG Version: 6.00 Build 0)  -->
<svg version="1.1" id="Capa_1" xmlns="http://www.w3.org/2000/svg" xmlns:xlink="http://www.w3.org/1999/xlink" x="0px" y="0px"
	 viewBox="0 0 512.1 512.1" style="enable-background:new 0 0 512.1 512.1;" xml:space="preserve">
<style type="text/css">
	.st0{fill:#FFFFFF;}
</style>
<g>
	<g>
		<path class="st0" d="M195.1,232.2L420.9,6.4l84.9,84.9L280,317.1l-113.1,28.3L195.1,232.2z M199.8,312.3l50.6-12.6l-37.9-37.9
			L199.8,312.3z M222.9,238.3l50.9,50.9l152.7-152.7l-50.9-50.9L222.9,238.3z M392.6,68.6l50.9,50.9l28.3-28.2l-51-51L392.6,68.6z"
			/>
	</g>
	<g>
		<path class="st0" d="M256.3,508.1c-22.6,0-45.3-3.1-67.3-9.2c-64.9-17.9-118.9-60-152.1-118.6C3.7,321.8-4.7,253.8,13.2,188.9
			c15-54.2,46.6-100.7,91.5-134.4C148.2,22,201.9,4,256,4c21.3,0,42.6,2.7,63.4,8.1L313,35.2c-18.3-4.7-37.2-7.1-56.1-7.1l-0.4,0
			c-125.5,0-227.8,102.1-228,227.6C28.4,316.6,52,373.9,95,417c43,43.1,100.2,67,161.1,67.1c101.5-0.1,191-67.6,219.1-164.8
			l23.2,6.2c-15.2,53.2-46.6,98.8-90.8,132C364,490.2,310.3,508.1,256.3,508.1z"/>
	</g>
	<g>
		<path class="st0" d="M482.6,281.7c0.8-7.2,1.3-14.5,1.4-21.7l24-0.6c-0.1,8.5-0.7,17-1.6,25.4L482.6,281.7z"/>
	</g>
	<g>
		<path class="st0" d="M481.4,221.1c-1.1-7.4-2.6-14.7-4.5-21.9l23.1-6.4c2.1,8.2,3.9,16.7,5.1,25.1L481.4,221.1z"/>
	</g>
</g>
</svg>
